<?xml version="1.0" encoding="utf-8"?>
<!-- Generator: Adobe Illustrator 16.0.4, SVG Export Plug-In . SVG Version: 6.00 Build 0)  -->
<!DOCTYPE svg PUBLIC "-//W3C//DTD SVG 1.1//EN" "http://www.w3.org/Graphics/SVG/1.1/DTD/svg11.dtd">
<svg version="1.1" id="Layer_1" xmlns="http://www.w3.org/2000/svg" xmlns:xlink="http://www.w3.org/1999/xlink" x="0px" y="0px"
	 width="1000px" height="566px" viewBox="0 0 1000 566" enable-background="new 0 0 1000 566" xml:space="preserve">
<g>
	<ellipse opacity="0.1" fill="#231F20" cx="500" cy="455.199" rx="412.578" ry="31.164"/>
	<g>
		<g>
			<polyline fill="#EFE9BF" points="471.734,324.353 436.18,359.906 409.076,359.906 386.547,382.436 386.547,407.861 
				250.84,407.861 250.84,382.436 436.18,288.797 			"/>
			<polyline fill="#FFFCE1" points="461.215,324.353 425.66,359.906 398.557,359.906 376.027,382.436 376.027,407.861 
				240.321,407.861 240.321,382.436 425.66,288.797 			"/>
			<polyline fill="#FF8048" points="455.909,319.045 421.452,353.502 392.528,353.502 363.596,382.436 363.596,400.187 
				247.094,400.187 247.094,387.543 375.693,322.08 396.995,322.08 411.195,303.146 425.397,303.146 432.702,295.84 			"/>
			<g>
				<path fill="#EFE9BF" d="M737.927,164.325H629.588l-47.865-47.864H548.06v35.105h-41.23l-71.93-71.93h-45.991v45.991
					l66.954,66.952v82.73l53.463,53.464v79.088h88.178v-79.088h44.184l12.718,12.718h39.881l66.228-103.001v-51.562h0.017
					L737.927,164.325z M582.317,210.585l-7.764,7.763h-10.979l-7.763-7.763v-10.979l7.763-7.763h10.979l7.764,7.763V210.585z"/>
				<path fill="#FFFCE1" d="M727.406,164.325H619.068l-47.865-47.864h-33.664v35.105H496.31l-71.931-71.93h-45.99v45.991
					l66.954,66.952v82.73l53.462,53.464v79.088h88.178v-79.088h44.185l12.718,12.718h39.881l66.229-103.001v-51.562h0.016
					L727.406,164.325z M571.797,210.585l-7.763,7.763h-10.979l-7.764-7.763v-10.979l7.764-7.763h10.979l7.763,7.763V210.585z"/>
				<path fill="#7A89C1" d="M721.638,170.9h-25.511l-19.199,19.199h-43.132l-66.274-66.276h-6.312v39.044h-8.416l-3.155-39.044
					h-6.312v39.044h-52.166l-15.165-15.165h-9.255l-56.49-56.491h-24.196v32.611l76.27,76.27h8.342l26.675,26.675l-10.539,10.537
					h-16.136l-9.533,9.535l14.863,14.863l-15.497,15.497l21.964,21.964h9.608v7.928h14.887v12.622h5.522v54.438l8.284,8.285h23.274
					v-35.505h7.101l11.852,11.854h14.973v-41.176h39.425l4.939,4.938h25.146l7.89,12.726h17.884l6.076-6.073v-18.121l-35.53-10.521
					l-3.156-6.311h-20.778l-7.626-6.312v-26.694h36.688l20.12,20.12h43.13l29.324-44.973v-45.63L721.638,170.9z M571.797,210.585
					l-7.763,7.763h-10.979l-7.764-7.763v-10.979l7.764-7.763h10.979l7.763,7.763V210.585z"/>
				<path fill="#FFFCE1" d="M568.609,180.799H548.48l-14.233,14.233v20.128l14.233,14.235h20.129l14.232-14.235v-20.128
					L568.609,180.799z M571.797,210.585l-7.763,7.763h-10.979l-7.764-7.763v-10.979l7.764-7.763h10.979l7.763,7.763V210.585z"/>
				<path fill="#50629B" d="M569.698,232.024h-22.308l-15.774-15.774v-22.307l15.774-15.774h22.308l15.773,15.774v22.307
					L569.698,232.024z M549.57,226.764h17.949l12.693-12.692v-17.95l-12.693-12.692H549.57l-12.692,12.692v17.95L549.57,226.764z"/>
			</g>
			<polygon opacity="0.2" fill="#231F20" points="420.357,291.476 462.433,333.553 466.424,329.562 425.66,288.797 			"/>
			<path fill="#EFE9BF" d="M704.758,164.325H596.419l-47.866-47.864h-33.662v35.105h-41.23l-71.93-71.93h-45.991v45.991
				l66.954,66.952v82.73l53.463,53.464v79.088h88.178v-79.088h44.184l12.719,12.718h39.881l66.228-103.001v-51.562h0.016
				L704.758,164.325z M549.147,210.585l-7.763,7.763h-10.979l-7.762-7.763v-10.979l7.762-7.763h10.979l7.763,7.763V210.585z"/>
			<path fill="#FFFCE1" d="M694.237,164.325H585.899l-47.866-47.864H504.37v35.105h-41.229l-71.931-71.93h-45.99v45.991
				l66.954,66.952v82.73l53.462,53.464v79.088h88.178v-79.088h44.185l12.719,12.718h39.881l66.228-103.001v-51.562h0.016
				L694.237,164.325z M538.627,210.585l-7.762,7.763h-10.979l-7.763-7.763v-10.979l7.763-7.763h10.979l7.762,7.763V210.585z"/>
			<path fill="#FF8048" d="M688.469,170.9h-25.512l-19.199,19.199h-43.131l-66.275-66.276h-6.312v39.044h-8.416l-3.155-39.044
				h-6.312v39.044H457.99l-15.165-15.165h-9.255l-56.49-56.491h-24.196v32.611l76.27,76.27h8.342l26.675,26.675l-10.539,10.537
				h-16.136l-9.533,9.535l14.863,14.863l-15.497,15.497l21.964,21.964h9.608v7.928h14.887v12.622h5.522v54.438l8.283,8.285h23.275
				v-35.505h7.1l11.853,11.854h14.972v-41.176h39.425l4.939,4.938h25.146l7.891,12.726h17.884l6.075-6.073v-18.121l-35.53-10.521
				l-3.156-6.311h-20.778l-7.626-6.312v-26.694h36.688l20.12,20.12H679l29.324-44.973v-45.63L688.469,170.9z M538.627,210.585
				l-7.762,7.763h-10.979l-7.763-7.763v-10.979l7.763-7.763h10.979l7.762,7.763V210.585z"/>
			<path fill="#FFFCE1" d="M535.44,180.799h-20.13l-14.233,14.233v20.128l14.233,14.235h20.13l14.231-14.235v-20.128L535.44,180.799
				z M538.627,210.585l-7.762,7.763h-10.979l-7.763-7.763v-10.979l7.763-7.763h10.979l7.762,7.763V210.585z"/>
			<path fill="#CE4C24" d="M536.529,232.024h-22.309l-15.773-15.774v-22.307l15.773-15.774h22.309l15.773,15.774v22.307
				L536.529,232.024z M516.4,226.764h17.95l12.692-12.692v-17.95l-12.692-12.692H516.4l-12.692,12.692v17.95L516.4,226.764z"/>
			<rect x="716.84" y="186.928" fill="#EFE9BF" width="43.689" height="51.562"/>
			<rect x="724.055" y="203.767" fill="#F4713D" width="29.26" height="17.884"/>
		</g>
		<rect x="175.886" y="407.861" fill="#F1F2F2" width="647.964" height="47.338"/>
		<g>
			<g>
				
					<line fill="none" stroke="#BCBEC0" stroke-width="1.1506" stroke-miterlimit="10" x1="175.886" y1="423.641" x2="824.114" y2="423.641"/>
				
					<line fill="none" stroke="#BCBEC0" stroke-width="1.1506" stroke-miterlimit="10" x1="175.886" y1="439.42" x2="824.114" y2="439.42"/>
				
					<line fill="none" stroke="#BCBEC0" stroke-width="1.1506" stroke-miterlimit="10" x1="175.886" y1="407.861" x2="175.886" y2="455.199"/>
				
					<line fill="none" stroke="#BCBEC0" stroke-width="1.1506" stroke-miterlimit="10" x1="191.667" y1="407.861" x2="191.667" y2="455.199"/>
				
					<line fill="none" stroke="#BCBEC0" stroke-width="1.1506" stroke-miterlimit="10" x1="207.445" y1="407.861" x2="207.445" y2="455.199"/>
				
					<line fill="none" stroke="#BCBEC0" stroke-width="1.1506" stroke-miterlimit="10" x1="223.226" y1="407.861" x2="223.226" y2="455.199"/>
				
					<line fill="none" stroke="#BCBEC0" stroke-width="1.1506" stroke-miterlimit="10" x1="239.204" y1="407.861" x2="239.204" y2="455.199"/>
				
					<line fill="none" stroke="#BCBEC0" stroke-width="1.1506" stroke-miterlimit="10" x1="254.984" y1="407.861" x2="254.984" y2="455.199"/>
				
					<line fill="none" stroke="#BCBEC0" stroke-width="1.1506" stroke-miterlimit="10" x1="270.764" y1="407.861" x2="270.764" y2="455.199"/>
				
					<line fill="none" stroke="#BCBEC0" stroke-width="1.1506" stroke-miterlimit="10" x1="286.543" y1="407.861" x2="286.543" y2="455.199"/>
				
					<line fill="none" stroke="#BCBEC0" stroke-width="1.1506" stroke-miterlimit="10" x1="302.324" y1="407.861" x2="302.324" y2="455.199"/>
				
					<line fill="none" stroke="#BCBEC0" stroke-width="1.1506" stroke-miterlimit="10" x1="318.103" y1="407.861" x2="318.103" y2="455.199"/>
				
					<line fill="none" stroke="#BCBEC0" stroke-width="1.1506" stroke-miterlimit="10" x1="333.883" y1="407.861" x2="333.883" y2="455.199"/>
				
					<line fill="none" stroke="#BCBEC0" stroke-width="1.1506" stroke-miterlimit="10" x1="349.663" y1="407.861" x2="349.663" y2="455.199"/>
				
					<line fill="none" stroke="#BCBEC0" stroke-width="1.1506" stroke-miterlimit="10" x1="365.641" y1="407.861" x2="365.641" y2="455.199"/>
				
					<line fill="none" stroke="#BCBEC0" stroke-width="1.1506" stroke-miterlimit="10" x1="381.421" y1="407.861" x2="381.421" y2="455.199"/>
				
					<line fill="none" stroke="#BCBEC0" stroke-width="1.1506" stroke-miterlimit="10" x1="397.2" y1="407.861" x2="397.2" y2="455.199"/>
				
					<line fill="none" stroke="#BCBEC0" stroke-width="1.1506" stroke-miterlimit="10" x1="412.98" y1="407.861" x2="412.98" y2="455.199"/>
				
					<line fill="none" stroke="#BCBEC0" stroke-width="1.1506" stroke-miterlimit="10" x1="428.76" y1="407.861" x2="428.76" y2="455.199"/>
				
					<line fill="none" stroke="#BCBEC0" stroke-width="1.1506" stroke-miterlimit="10" x1="444.54" y1="407.861" x2="444.54" y2="455.199"/>
				
					<line fill="none" stroke="#BCBEC0" stroke-width="1.1506" stroke-miterlimit="10" x1="460.32" y1="407.861" x2="460.32" y2="455.199"/>
				
					<line fill="none" stroke="#BCBEC0" stroke-width="1.1506" stroke-miterlimit="10" x1="476.099" y1="407.861" x2="476.099" y2="455.199"/>
				
					<line fill="none" stroke="#BCBEC0" stroke-width="1.1506" stroke-miterlimit="10" x1="492.079" y1="407.861" x2="492.079" y2="455.199"/>
				
					<line fill="none" stroke="#BCBEC0" stroke-width="1.1506" stroke-miterlimit="10" x1="507.857" y1="407.861" x2="507.857" y2="455.199"/>
				
					<line fill="none" stroke="#BCBEC0" stroke-width="1.1506" stroke-miterlimit="10" x1="523.638" y1="407.861" x2="523.638" y2="455.199"/>
				
					<line fill="none" stroke="#BCBEC0" stroke-width="1.1506" stroke-miterlimit="10" x1="539.417" y1="407.861" x2="539.417" y2="455.199"/>
				
					<line fill="none" stroke="#BCBEC0" stroke-width="1.1506" stroke-miterlimit="10" x1="555.197" y1="407.861" x2="555.197" y2="455.199"/>
				
					<line fill="none" stroke="#BCBEC0" stroke-width="1.1506" stroke-miterlimit="10" x1="570.978" y1="407.861" x2="570.978" y2="455.199"/>
				
					<line fill="none" stroke="#BCBEC0" stroke-width="1.1506" stroke-miterlimit="10" x1="586.757" y1="407.861" x2="586.757" y2="455.199"/>
				
					<line fill="none" stroke="#BCBEC0" stroke-width="1.1506" stroke-miterlimit="10" x1="602.537" y1="407.861" x2="602.537" y2="455.199"/>
				
					<line fill="none" stroke="#BCBEC0" stroke-width="1.1506" stroke-miterlimit="10" x1="618.515" y1="407.861" x2="618.515" y2="455.199"/>
				
					<line fill="none" stroke="#BCBEC0" stroke-width="1.1506" stroke-miterlimit="10" x1="634.295" y1="407.861" x2="634.295" y2="455.199"/>
				
					<line fill="none" stroke="#BCBEC0" stroke-width="1.1506" stroke-miterlimit="10" x1="650.074" y1="407.861" x2="650.074" y2="455.199"/>
				
					<line fill="none" stroke="#BCBEC0" stroke-width="1.1506" stroke-miterlimit="10" x1="665.854" y1="407.861" x2="665.854" y2="455.199"/>
				
					<line fill="none" stroke="#BCBEC0" stroke-width="1.1506" stroke-miterlimit="10" x1="681.635" y1="407.861" x2="681.635" y2="455.199"/>
				
					<line fill="none" stroke="#BCBEC0" stroke-width="1.1506" stroke-miterlimit="10" x1="697.413" y1="407.861" x2="697.413" y2="455.199"/>
				
					<line fill="none" stroke="#BCBEC0" stroke-width="1.1506" stroke-miterlimit="10" x1="713.193" y1="407.861" x2="713.193" y2="455.199"/>
				
					<line fill="none" stroke="#BCBEC0" stroke-width="1.1506" stroke-miterlimit="10" x1="728.973" y1="407.861" x2="728.973" y2="455.199"/>
				
					<line fill="none" stroke="#BCBEC0" stroke-width="1.1506" stroke-miterlimit="10" x1="744.952" y1="407.861" x2="744.952" y2="455.199"/>
				
					<line fill="none" stroke="#BCBEC0" stroke-width="1.1506" stroke-miterlimit="10" x1="760.731" y1="407.861" x2="760.731" y2="455.199"/>
				
					<line fill="none" stroke="#BCBEC0" stroke-width="1.1506" stroke-miterlimit="10" x1="776.512" y1="407.861" x2="776.512" y2="455.199"/>
				
					<line fill="none" stroke="#BCBEC0" stroke-width="1.1506" stroke-miterlimit="10" x1="792.292" y1="407.861" x2="792.292" y2="455.199"/>
				
					<line fill="none" stroke="#BCBEC0" stroke-width="1.1506" stroke-miterlimit="10" x1="808.07" y1="407.861" x2="808.07" y2="455.199"/>
				
					<line fill="none" stroke="#BCBEC0" stroke-width="1.1506" stroke-miterlimit="10" x1="823.851" y1="407.861" x2="823.851" y2="455.199"/>
			</g>
		</g>
		
			<rect x="223.325" y="407.861" fill="#4863B5" stroke="#BCBEC0" stroke-width="1.1506" stroke-miterlimit="10" width="15.78" height="15.779"/>
		
			<rect x="239.105" y="407.861" fill="#4863B5" stroke="#BCBEC0" stroke-width="1.1506" stroke-miterlimit="10" width="15.78" height="15.779"/>
		
			<rect x="254.885" y="407.861" fill="#4863B5" stroke="#BCBEC0" stroke-width="1.1506" stroke-miterlimit="10" width="15.779" height="15.779"/>
		
			<rect x="397.102" y="407.861" fill="#4863B5" stroke="#BCBEC0" stroke-width="1.1506" stroke-miterlimit="10" width="15.779" height="15.779"/>
		
			<rect x="412.881" y="407.861" fill="#4863B5" stroke="#BCBEC0" stroke-width="1.1506" stroke-miterlimit="10" width="15.78" height="15.779"/>
		
			<rect x="428.661" y="407.861" fill="#4863B5" stroke="#BCBEC0" stroke-width="1.1506" stroke-miterlimit="10" width="15.78" height="15.779"/>
		
			<rect x="239.105" y="423.641" fill="#4863B5" stroke="#BCBEC0" stroke-width="1.1506" stroke-miterlimit="10" width="15.78" height="15.779"/>
		
			<rect x="254.885" y="423.641" fill="#4863B5" stroke="#BCBEC0" stroke-width="1.1506" stroke-miterlimit="10" width="15.779" height="15.779"/>
		
			<rect x="270.664" y="423.641" fill="#4863B5" stroke="#BCBEC0" stroke-width="1.1506" stroke-miterlimit="10" width="15.78" height="15.779"/>
		
			<rect x="365.542" y="423.641" fill="#4863B5" stroke="#BCBEC0" stroke-width="1.1506" stroke-miterlimit="10" width="15.779" height="15.779"/>
		
			<rect x="381.321" y="423.641" fill="#4863B5" stroke="#BCBEC0" stroke-width="1.1506" stroke-miterlimit="10" width="15.78" height="15.779"/>
		
			<rect x="397.102" y="423.641" fill="#4863B5" stroke="#BCBEC0" stroke-width="1.1506" stroke-miterlimit="10" width="15.779" height="15.779"/>
		
			<rect x="302.422" y="407.861" fill="#4863B5" stroke="#BCBEC0" stroke-width="1.1506" stroke-miterlimit="10" width="15.779" height="15.779"/>
		
			<rect x="333.982" y="407.861" fill="#4863B5" stroke="#BCBEC0" stroke-width="1.1506" stroke-miterlimit="10" width="15.78" height="15.779"/>
		
			<rect x="318.202" y="423.641" fill="#4863B5" stroke="#BCBEC0" stroke-width="1.1506" stroke-miterlimit="10" width="15.78" height="15.779"/>
		
			<rect x="555.296" y="407.861" fill="#4863B5" stroke="#BCBEC0" stroke-width="1.1506" stroke-miterlimit="10" width="15.78" height="15.779"/>
		
			<rect x="571.076" y="407.861" fill="#4863B5" stroke="#BCBEC0" stroke-width="1.1506" stroke-miterlimit="10" width="15.78" height="15.779"/>
		
			<rect x="586.856" y="407.861" fill="#4863B5" stroke="#BCBEC0" stroke-width="1.1506" stroke-miterlimit="10" width="15.779" height="15.779"/>
		
			<rect x="729.073" y="407.861" fill="#4863B5" stroke="#BCBEC0" stroke-width="1.1506" stroke-miterlimit="10" width="15.778" height="15.779"/>
		
			<rect x="744.852" y="407.861" fill="#4863B5" stroke="#BCBEC0" stroke-width="1.1506" stroke-miterlimit="10" width="15.78" height="15.779"/>
		
			<rect x="760.632" y="407.861" fill="#4863B5" stroke="#BCBEC0" stroke-width="1.1506" stroke-miterlimit="10" width="15.78" height="15.779"/>
		
			<rect x="571.076" y="423.641" fill="#4863B5" stroke="#BCBEC0" stroke-width="1.1506" stroke-miterlimit="10" width="15.78" height="15.779"/>
		
			<rect x="586.856" y="423.641" fill="#4863B5" stroke="#BCBEC0" stroke-width="1.1506" stroke-miterlimit="10" width="15.779" height="15.779"/>
		
			<rect x="602.636" y="423.641" fill="#4863B5" stroke="#BCBEC0" stroke-width="1.1506" stroke-miterlimit="10" width="15.78" height="15.779"/>
		
			<rect x="697.514" y="423.641" fill="#4863B5" stroke="#BCBEC0" stroke-width="1.1506" stroke-miterlimit="10" width="15.779" height="15.779"/>
		
			<rect x="713.293" y="423.641" fill="#4863B5" stroke="#BCBEC0" stroke-width="1.1506" stroke-miterlimit="10" width="15.78" height="15.779"/>
		
			<rect x="729.073" y="423.641" fill="#4863B5" stroke="#BCBEC0" stroke-width="1.1506" stroke-miterlimit="10" width="15.778" height="15.779"/>
		
			<rect x="634.394" y="407.861" fill="#4863B5" stroke="#BCBEC0" stroke-width="1.1506" stroke-miterlimit="10" width="15.779" height="15.779"/>
		
			<rect x="665.953" y="407.861" fill="#4863B5" stroke="#BCBEC0" stroke-width="1.1506" stroke-miterlimit="10" width="15.78" height="15.779"/>
		
			<rect x="650.173" y="423.641" fill="#4863B5" stroke="#BCBEC0" stroke-width="1.1506" stroke-miterlimit="10" width="15.78" height="15.779"/>
		<rect x="776.512" y="407.861" opacity="0.2" fill="#231F20" width="47.339" height="47.338"/>
	</g>
</g>
</svg>
